Coordinates
version=1
nRows=8
nColumns=46
inDegrees=yes

Units are S.I. units (second, meters, Newtons, ...)
Angles are in degrees.

endheader
time	pelvis_tilt	pelvis_list	pelvis_rotation	pelvis_tx	pelvis_ty	pelvis_tz	bb_angle	bb_tx	bb_ty	bb_tz	hip_flexion_r	hip_adduction_r	hip_rotation_r	knee_angle_r	knee_angle_r_beta	ankle_angle_r	subtalar_angle_r	mtp_angle_r	crank_angle_r	hip_flexion_l	hip_adduction_l	hip_rotation_l	knee_angle_l	knee_angle_l_beta	ankle_angle_l	subtalar_angle_l	mtp_angle_l	crank_angle_l	lumbar_extension	lumbar_bending	lumbar_rotation	arm_flex_r	arm_add_r	arm_rot_r	elbow_flex_r	pro_sup_r	wrist_flex_r	wrist_dev_r	arm_flex_l	arm_add_l	arm_rot_l	elbow_flex_l	pro_sup_l	wrist_flex_l	wrist_dev_l
      7.50500000	    -23.47677997	     11.56693273	      6.04903663	      0.37342770	      1.10672352	     -0.27610755	      0.00000000	      0.50000000	      0.00000000	      0.25000000	     35.50908128	    -17.96524007	     -2.52739985	     39.35351705	      0.68684844	    -26.59116093	     -3.04857994	      0.00000000	      0.00000000	     82.66500748	      0.00656729	     -2.91340408	    100.13098354	      1.74761535	     -1.70464228	     -1.68326007	      0.00000000	      0.00000000	    -67.75343528	     -8.90597517	     -4.06623318	     59.67752807	    -33.33555855	     23.83863734	     80.03301641	     47.38156151	      0.00000000	      0.00000000	     77.14957272	    -12.64432971	     38.26158694	     69.44086473	     45.30226833	      0.00000000	      0.00000000
      7.51000000	    -23.56063464	     11.15234850	      6.07589105	      0.37303733	      1.10887538	     -0.27505492	      0.00000000	      0.50000000	      0.00000000	      0.25000000	     36.27867358	    -17.54283212	     -2.27887471	     41.42814439	      0.72305752	    -26.70124801	     -3.53102090	      0.00000000	      0.00000000	     81.54616999	     -0.22591706	     -2.86869013	     97.91889380	      1.70900710	      0.18160940	     -1.36513163	      0.00000000	      0.00000000	    -68.06688801	     -9.09819449	     -4.01017826	     59.92199379	    -33.24416380	     23.66856325	     79.75161296	     47.31054270	      0.00000000	      0.00000000	     77.06474484	    -12.31772510	     37.55104825	     69.94177849	     45.30679123	      0.00000000	      0.00000000
      7.51500000	    -23.44698460	     10.53041230	      6.06624653	      0.37272009	      1.11099994	     -0.27396855	      0.00000000	      0.50000000	      0.00000000	      0.25000000	     36.81444226	    -16.89940625	     -2.15078024	     43.51980119	      0.75956382	    -26.60210275	     -4.01343154	      0.00000000	      0.00000000	     80.15996292	     -0.58534728	     -2.70159866	     95.61167587	      1.66873855	      2.05163775	     -1.39541150	      0.00000000	      0.00000000	    -68.41004069	     -9.20526875	     -3.83103798	     60.17062773	    -32.99402511	     23.54207145	     79.51509413	     47.25145295	      0.00000000	      0.00000000	     76.82928700	    -11.89730981	     36.89071218	     70.40599243	     45.31080391	      0.00000000	      0.00000000
      7.52000000	    -23.77591805	      9.95802680	      5.93776609	      0.37278723	      1.11252109	     -0.27295237	      0.00000000	      0.50000000	      0.00000000	      0.25000000	     37.91287285	    -16.15498470	     -1.53628977	     45.68495980	      0.79735297	    -26.33441202	     -4.27599590	      0.00000000	      0.00000000	     79.05870780	     -1.18873806	     -2.83555534	     93.17302805	      1.62617611	      3.90621918	     -0.97529697	      0.00000000	      0.00000000	    -68.32521246	     -9.27901065	     -4.21359015	     60.65405902	    -31.18975327	     22.85236370	     77.90923480	     46.89238417	      0.00000000	      0.00000000	     74.75449964	    -11.02397685	     31.44725722	     72.92488521	     45.15910265	      0.00000000	      0.00000000
      7.52500000	    -23.99065241	      9.41781618	      5.86804743	      0.37295752	      1.11399461	     -0.27226244	      0.00000000	      0.50000000	      0.00000000	      0.25000000	     38.96341074	    -15.51279599	     -1.02571555	     48.02337938	      0.83816609	    -25.97029728	     -4.61573442	      0.00000000	      0.00000000	     77.79438217	     -1.54939759	     -2.88810056	     90.52900569	      1.58002922	      5.33607382	     -1.01607665	      0.00000000	      0.00000000	    -68.28960672	     -9.31101189	     -4.59662255	     61.33393215	    -29.82786806	     23.01813446	     76.48902279	     46.67283446	      0.00000000	      0.00000000	     73.66941615	    -10.95449331	     29.16118696	     74.47647503	     45.19120832	      0.00000000	      0.00000000
      7.53000000	    -23.65355733	      8.75922719	      6.04036454	      0.37261905	      1.11609428	     -0.27162793	      0.00000000	      0.50000000	      0.00000000	      0.25000000	     39.38058218	    -14.85605669	     -0.81237676	     50.38382439	      0.87936363	    -25.74399163	     -4.81066919	      0.00000000	      0.00000000	     76.02262114	     -1.74393501	     -2.93036058	     87.75497450	      1.53161324	      6.19207086	     -1.70362225	      0.00000000	      0.00000000	    -68.76073606	     -9.03360904	     -4.40573138	     61.66317433	    -29.53315242	     23.04411584	     76.24570269	     46.63097052	      0.00000000	      0.00000000	     73.59843225	    -10.55651356	     28.90687955	     74.74638744	     45.20744152	      0.00000000	      0.00000000
      7.53500000	    -23.43228308	      8.33707026	      6.09035523	      0.37282419	      1.11808491	     -0.27140711	      0.00000000	      0.50000000	      0.00000000	      0.25000000	     39.99643261	    -14.45177699	     -0.43090284	     52.75134788	      0.92068471	    -25.10798163	     -4.87244987	      0.00000000	      0.00000000	     74.18077949	     -2.02986883	     -3.52358940	     84.71795919	      1.47860732	      6.25486436	     -3.03014399	      0.00000000	      0.00000000	    -69.08210347	     -8.84099687	     -5.03492363	     62.65561174	    -27.81084610	     23.32793668	     74.09883375	     46.30307428	      0.00000000	      0.00000000	     72.44899371	    -10.20081781	     25.39854043	     76.20263586	     45.10225175	      0.00000000	      0.00000000
      7.54000000	    -23.29373926	      7.27162764	      6.13347218	      0.37271875	      1.11947796	     -0.27118460	      0.00000000	      0.50000000	      0.00000000	      0.25000000	     40.64775819	    -13.38385028	     -0.43305478	     54.88897585	      0.95799335	    -25.33337739	     -4.78774582	      0.00000000	      0.00000000	     72.75574609	     -2.47311194	     -3.16246284	     81.87256739	      1.42894587	      6.36672058	     -3.34069592	      0.00000000	      0.00000000	    -69.14920576	     -8.52218036	     -4.41445145	     62.62239386	    -27.58040672	     23.41051853	     74.01867105	     46.29845624	      0.00000000	      0.00000000	     72.24550989	    -10.19429194	     25.32076790	     76.25604093	     45.10534023	      0.00000000	      0.00000000
